<?xml version="1.0" encoding="utf-8"?>
<!-- Generator: Adobe Illustrator 16.0.0, SVG Export Plug-In . SVG Version: 6.00 Build 0)  -->
<!DOCTYPE svg PUBLIC "-//W3C//DTD SVG 1.1//EN" "http://www.w3.org/Graphics/SVG/1.1/DTD/svg11.dtd">
<svg version="1.1" id="Layer_1" xmlns="http://www.w3.org/2000/svg" xmlns:xlink="http://www.w3.org/1999/xlink" x="0px" y="0px"
	 width="720px" height="1152px" viewBox="0 0 720 1152" enable-background="new 0 0 720 1152" xml:space="preserve">
<g>
	<path fill-rule="evenodd" clip-rule="evenodd" fill="#FFFFFF" d="M193.74,744.52c0-111.556,0-223.112,0-334.734
		c111.266,0,222.553,0,333.949,0c0,111.535,0,223.135,0,334.734C416.421,744.52,305.091,744.52,193.74,744.52z M470.779,666.706
		c-1.821-1.458-3.451-2.65-4.947-3.991c-1.516-1.359-2.929-2.839-4.337-4.313c-4.836-5.064-4.824-5.069-1.381-11.08
		c0.408-0.714,0.703-1.497,1.143-2.189c11.732-18.507,17.617-38.896,18.938-60.6c0.782-12.831-0.581-25.593-3.543-38.115
		c-4.707-19.9-12.852-38.214-25.732-54.311c3.962-4.247,7.945-8.446,11.848-12.719c3.496-3.828,7.062-6.131,12.511-3.163
		c4.203,2.289,8.703,1.544,12.704-1.137c8.147-5.459,11.749-15.872,9.245-25.818c-1.797-7.138-5.288-12.204-13.288-13.102
		c-1.094-0.122-2.494-2.051-2.853-3.385c-1.547-5.743-4.376-10.365-10.567-11.426c-3.624-0.622-7.568-0.736-11.149-0.006
		c-12.398,2.527-18.467,12.913-15.178,25.099c0.231,0.859,0.199,2.19-0.312,2.788c-5.577,6.53-10.353,13.833-17.594,18.888
		c-0.917-0.559-1.797-0.947-2.496-1.545c-8.195-7.013-17.771-11.604-27.908-14.723c-16.32-5.021-33.079-7.589-50.228-6.103
		c-8.584,0.745-17.205,1.466-25.686,2.923c-15.866,2.727-30.484,8.534-42.952,19.103c-0.64,0.542-2.634,0.521-3.196-0.04
		c-5.236-5.234-10.369-10.579-15.329-16.074c-0.752-0.833-1.065-2.907-0.565-3.889c3.631-7.127,2.918-13.996-1.986-19.885
		c-4.84-5.812-11.946-8.537-19.269-7.876c-9.972,0.901-15.589,5.324-16.591,16.774c-6.915,1.034-12.54,3.898-14.571,11.244
		c-2.641,9.551-0.032,17.852,6.929,24.554c5.824,5.607,12.741,5.206,19.918,1.828c6.109,6.614,12.197,13.204,17.895,19.372
		c-3.345,4.422-6.61,8.201-9.248,12.378c-2.682,4.247-5.031,8.762-7.028,13.374c-7.062,16.316-10.196,33.595-10.549,51.209
		c-0.232,11.597,0.679,23.303,2.152,34.822c1.351,10.563,4.055,20.999,9.095,30.549c3.487,6.607,7.405,12.987,11.292,19.752
		c-2.696,2.922-5.735,6.259-8.823,9.549c-1.964,2.093-3.845,2.853-6.993,1.472c-3.174-1.393-7.063-2.167-10.478-1.782
		c-6.661,0.753-10.586,5.326-13.139,11.396c-3.618,8.607-2.451,19.574,3.749,24.938c2.771,2.396,6.721,3.432,10.758,5.385
		c0.859,4.153,1.893,9.339,7.216,11.974c6.067,3.003,12.35,3.764,18.728,1.173c5.854-2.378,10.682-6.13,11.383-12.813
		c0.438-4.177-0.522-8.49-0.709-12.748c-0.049-1.104,0.076-2.597,0.754-3.291c3.898-3.987,7.987-7.789,11.74-11.393
		c6.672,4.503,12.623,9.224,19.188,12.823c24.224,13.281,49.948,19.212,77.693,15.341c13.765-1.921,26.978-5.585,39.266-11.826
		c8.863-4.502,17.051-10.351,25.441-15.75c1.887-1.215,3.376-1.458,4.964,0.118c3.361,3.332,6.686,6.703,9.884,9.916
		c-7.251,12.505-4.504,17.336-0.81,21.884c6.224,7.661,14.774,10.96,24.674,8.44c8.188-2.084,11.403-8.437,12.206-16.229
		c6.226-0.727,9.662-2.469,12.031-6.026c4.46-6.7,3.987-17.667-0.956-25.086C488.388,665.311,480.429,661.885,470.779,666.706z"/>
	<path fill-rule="evenodd" clip-rule="evenodd" d="M470.779,666.706c9.649-4.821,17.608-1.396,22.954,6.629
		c4.943,7.419,5.416,18.386,0.956,25.086c-2.369,3.558-5.806,5.3-12.031,6.026c-0.803,7.792-4.019,14.145-12.206,16.229
		c-9.899,2.52-18.45-0.779-24.674-8.44c-3.694-4.548-6.441-9.379,0.81-21.884c-3.198-3.213-6.522-6.584-9.884-9.916
		c-1.588-1.576-3.077-1.333-4.964-0.118c-8.391,5.399-16.578,11.248-25.441,15.75c-12.288,6.241-25.501,9.905-39.266,11.826
		c-27.745,3.871-53.469-2.06-77.693-15.341c-6.565-3.6-12.517-8.32-19.188-12.823c-3.752,3.604-7.841,7.405-11.74,11.393
		c-0.679,0.694-0.803,2.187-0.754,3.291c0.188,4.258,1.148,8.571,0.709,12.748c-0.701,6.683-5.529,10.435-11.383,12.813
		c-6.377,2.591-12.66,1.83-18.728-1.173c-5.323-2.635-6.357-7.82-7.216-11.974c-4.037-1.953-7.986-2.988-10.758-5.385
		c-6.2-5.363-7.367-16.33-3.749-24.938c2.552-6.069,6.478-10.643,13.139-11.396c3.415-0.385,7.304,0.39,10.478,1.782
		c3.148,1.381,5.029,0.621,6.993-1.472c3.088-3.29,6.127-6.627,8.823-9.549c-3.887-6.765-7.806-13.145-11.292-19.752
		c-5.04-9.55-7.744-19.985-9.095-30.549c-1.473-11.52-2.384-23.226-2.152-34.822c0.353-17.614,3.487-34.893,10.549-51.209
		c1.997-4.612,4.346-9.127,7.028-13.374c2.638-4.177,5.903-7.956,9.248-12.378c-5.698-6.168-11.785-12.758-17.895-19.372
		c-7.178,3.378-14.095,3.779-19.918-1.828c-6.961-6.702-9.569-15.003-6.929-24.554c2.032-7.346,7.657-10.209,14.571-11.244
		c1.002-11.45,6.619-15.873,16.591-16.774c7.323-0.661,14.429,2.064,19.269,7.876c4.905,5.889,5.618,12.758,1.986,19.885
		c-0.5,0.982-0.187,3.056,0.565,3.889c4.96,5.495,10.093,10.84,15.329,16.074c0.562,0.561,2.556,0.582,3.196,0.04
		c12.467-10.569,27.086-16.376,42.952-19.103c8.48-1.457,17.101-2.178,25.686-2.923c17.148-1.486,33.907,1.082,50.228,6.103
		c10.137,3.118,19.713,7.709,27.908,14.723c0.699,0.598,1.579,0.986,2.496,1.545c7.241-5.055,12.017-12.358,17.594-18.888
		c0.511-0.598,0.543-1.928,0.312-2.788c-3.289-12.186,2.779-22.572,15.178-25.099c3.581-0.73,7.525-0.615,11.149,0.006
		c6.191,1.061,9.021,5.683,10.567,11.426c0.358,1.334,1.759,3.263,2.853,3.385c8,0.897,11.491,5.964,13.288,13.102
		c2.504,9.946-1.098,20.359-9.245,25.818c-4.001,2.681-8.501,3.426-12.704,1.137c-5.449-2.968-9.015-0.666-12.511,3.163
		c-3.902,4.273-7.886,8.473-11.848,12.719c12.881,16.097,21.025,34.411,25.732,54.311c2.962,12.522,4.325,25.284,3.543,38.115
		c-1.321,21.703-7.206,42.093-18.938,60.6c-0.439,0.692-0.734,1.476-1.143,2.189c-3.443,6.011-3.455,6.016,1.381,11.08
		c1.408,1.475,2.821,2.954,4.337,4.313C467.328,664.056,468.958,665.248,470.779,666.706z M276.169,560.461
		c0.376,24.854,7.296,46.957,25.898,63.631c19.018,17.046,42.132,20.9,66.392,15.83c39.775-8.312,60.676-44.677,56.707-84.105
		c-11.171-1.41-22.371-3.163-33.639-4.148c-10.681-0.935-21.428-1.239-32.154-1.48c-6.062-0.137-12.146,0.304-18.208,0.675
		c-10.302,0.63-20.602,1.313-30.888,2.154C298.532,553.978,287.122,556.573,276.169,560.461z M285.832,525.268
		c43.416-6.772,86.429-7.398,129.811-1.299c-0.706-1.221-1.428-2.159-1.834-3.218c-3.024-7.91-8.754-13.723-15.257-18.643
		c-13.434-10.162-29.085-14.208-45.619-14.51c-11.587-0.211-22.993,1.929-33.755,6.427
		C304.348,500.224,292.45,509.715,285.832,525.268z M464.246,547.284c-0.319-1.667-0.345-2.404-0.602-3.05
		c-6.181-15.545-12.922-30.709-23.346-44.111c-6.549-8.42-13.814-16.072-22.208-22.349c-16.367-12.238-35.192-18.892-55.528-20.394
		c-13.647-1.008-27.392-0.426-40.79,2.836c-23.961,5.833-43.464,18.836-58.542,38.189c-10.632,13.647-18.057,29.117-23.42,45.559
		c-0.554,1.699-1.005,3.43-1.594,5.455c1.501-0.38,2.617-0.347,3.262-0.882c2.697-2.233,7.095-1.398,8.831-5.567
		c2.973-7.139,6.04-14.292,9.765-21.055c8.006-14.54,18.469-27.05,32.102-36.762c14.846-10.577,31.497-16.403,49.505-17.66
		c10.744-0.75,21.542-0.333,32.329,1.816c22.606,4.504,40.647,16.328,55.39,33.389c9.023,10.441,15.755,22.477,20.725,35.429
		c0.995,2.592,1.473,5.545,5.214,6.171C458.147,544.768,460.814,546.095,464.246,547.284z M231.787,558.934
		c0.101,0.355,0.202,0.71,0.303,1.065c1.271,0.129,2.547,0.217,3.812,0.395c9.674,1.364,19.347,2.738,29.017,4.129
		c1.892,0.272,2.917-0.392,3.762-2.23c1.813-3.948,4.93-6.611,8.824-8.699c8.458-4.535,17.758-5.264,26.945-6.26
		c8.376-0.908,16.83-1.172,25.258-1.498c9.785-0.378,19.577-0.641,29.368-0.706c5.47-0.037,10.942,0.482,16.417,0.652
		c3.737,0.115,7.485-0.07,11.219,0.106c7.938,0.372,15.878,0.77,23.798,1.402c4.09,0.326,8.143,1.148,12.204,1.795
		c6.329,1.008,8.249,6.105,9.942,11.167c0.686,2.048,1.544,2.386,3.514,2.164c7.518-0.847,15.09-1.272,22.578-2.309
		c4.313-0.598,8.508-2.066,12.756-3.143c-1.716-1.352-3.302-1.98-4.906-2.557c-22.154-7.978-45.164-12.058-68.482-14.239
		c-14.554-1.362-29.213-1.629-43.831-2.233c-3.056-0.126-6.138,0.487-9.214,0.653c-9.503,0.51-19.024,0.771-28.509,1.504
		c-9.184,0.71-18.472,1.188-27.462,3.014c-14.916,3.031-29.667,6.917-44.405,10.756
		C240.251,555.017,236.081,557.214,231.787,558.934z M235.714,566.564c-1.692,34.684,7.548,72.647,40.016,101.368
		c9.822,8.688,41.373,24.471,50.528,23.525c-6.277-5.65-11.656-11.187-17.76-15.755c-4.56-3.413-10.291-5.218-15.09-8.363
		c-12.929-8.475-23.494-19.358-31.844-32.411c-10.351-16.18-15.465-33.907-15.985-53.022c-0.121-4.424-0.018-8.854-0.018-13.642
		C242.273,567.696,239.094,567.147,235.714,566.564z M457.527,565.554c-0.353,6.625-0.767,12.754-0.988,18.892
		c-0.452,12.482-3.133,24.415-7.825,36.013c-8.415,20.8-22.583,36.477-41.406,48.359c-7.502,4.735-17.197,6.685-21.22,16.103
		c-0.537,1.259-1.807,2.186-2.528,3.392c-0.583,0.975-0.852,2.137-1.383,3.543c27.216-9.729,50.175-24.135,65.881-48.491
		c15.668-24.298,19.793-51.229,19.213-79.558C463.597,564.465,460.387,565.041,457.527,565.554z M473.734,444.078
		c0.146-0.933,0.211-2.336,0.592-3.647c2.087-7.171-5.755-13.128-11.825-11.385c-7.076,2.032-11.24,8.61-9.619,15.884
		c0.577,2.585,1.29,5.139,1.991,7.909c-0.578,0.55-1.283,1.195-1.96,1.871c-5.771,5.765-11.588,11.486-17.247,17.358
		c-0.825,0.856-1.612,3.16-1.197,3.576c3.376,3.382,7.042,6.474,10.222,9.3c7.47-7.116,14.815-14.162,22.271-21.089
		c0.433-0.402,2.026-0.166,2.626,0.326c3.194,2.618,6.313,4.532,10.879,3.461c6.357-1.492,9.527-9.275,9.121-14.013
		c-0.383-4.462-2.589-7.772-7.271-8.652C479.624,444.471,476.851,444.388,473.734,444.078z M268.676,475.134
		c-1.697-1.497-3.197-2.654-4.502-4.001c-5.146-5.306-10.052-10.86-15.417-15.932c-2.575-2.435-2.512-4.092-0.59-6.771
		c4.106-5.723,3.492-11.662-1.949-16.015c-7.824-6.26-16.386-3.388-18.504,5.337c-0.598,2.462-0.091,5.192-0.091,7.835
		c-7.189-0.713-11.205,0.565-13.53,4.8c-2.113,3.85-0.699,9.552,2.97,13.283c5.11,5.197,8.305,5.348,18.353,0.546
		c7.138,7.179,14.439,14.522,21.813,21.938c0.711-0.673,1.316-1.238,1.912-1.812C262.326,481.269,265.51,478.192,268.676,475.134z
		 M234.888,678.534c-9.163-6.23-11.469-5.801-17.816-1.493c-4.593,3.118-6.197,9.405-3.78,13.529
		c1.373,2.343,3.415,4.968,5.771,5.886c2.883,1.123,6.411,0.592,9.467,0.766c0.572,3.262,1.041,7.124,1.967,10.873
		c0.834,3.377,5.191,5.587,8.675,5.061c10.288-1.555,13.381-14.13,8.888-21.038c-1.24-1.907-1.026-2.795,0.394-4.173
		c3.957-3.842,7.848-7.753,11.701-11.699c0.999-1.022,1.767-2.271,2.058-2.653c-3.806-3.837-7.204-7.263-10.252-10.336
		C246.65,668.01,240.925,673.132,234.888,678.534z M441.445,672.522c2.591,2.239,5.191,4.276,7.538,6.574
		c2.371,2.321,4.747,4.727,6.591,7.453c0.712,1.053,0.563,3.506-0.21,4.608c-3.798,5.411-4.291,10.791-1.022,16.541
		c2.229,3.922,7.327,6.605,10.973,5.777c4.962-1.129,8.104-4.524,8.457-9.422c0.18-2.497,0.031-5.018,0.031-7.627
		c2.001,0,3.701-0.242,5.306,0.049c3.712,0.671,7.347-0.829,9.16-4.066c2.984-5.327,0.244-14.442-5.16-17.778
		c-4.474-2.761-8.391-1.122-12.252,1.196c-2.295,1.378-3.948,1.167-5.896-0.88c-4.485-4.714-9.261-9.148-13.777-13.559
		C447.638,665.443,444.607,668.908,441.445,672.522z M422.92,538.123c-1.382-5.917-4.729-8.679-9.634-9.548
		c-2.935-0.52-5.956-0.548-8.938-0.802c-11.166-0.95-22.318-2.155-33.504-2.768c-8.011-0.439-16.067-0.18-24.101-0.057
		c-6.91,0.106-13.834,0.219-20.718,0.766c-8.947,0.711-17.868,1.78-26.783,2.841c-4.538,0.54-9.102,1.132-13.536,2.194
		c-4.242,1.015-5.74,3.48-5.988,8.318C327.212,531.577,374.773,531.352,422.92,538.123z M385.248,672.666
		c-21.987,6.46-43.626,7.137-65.547-0.116c1.116,7.261,5.294,12.322,10.805,15.677c13.99,8.517,28.653,9.48,43.295,1.492
		C380.354,686.143,383.885,680.209,385.248,672.666z M359.289,673.063c-0.258-3.44-0.382-6.705-0.855-9.919
		c-0.085-0.583-1.578-1.312-2.454-1.359c-3.071-0.166-6.157-0.064-9.535-0.064c-0.461,3.9-0.895,7.562-1.342,11.343
		C349.798,673.063,354.398,673.063,359.289,673.063z M341.544,661.322c-3.611-0.857-6.625-1.573-9.784-2.323
		c-0.829,3.662-1.57,6.941-2.452,10.837c3.606,0.749,7.271,1.51,11.186,2.323C340.889,668.092,341.206,664.82,341.544,661.322z
		 M372.667,659.277c-3.153,0.711-6.05,1.363-9.217,2.077c0.241,3.604,0.464,6.939,0.731,10.944
		c3.869-0.816,6.994-1.477,10.563-2.229C374.057,666.497,373.425,663.215,372.667,659.277z M327.089,657.85
		c-2.634-1.139-5.148-2.226-7.696-3.327c-0.383,1.56-0.759,2.903-1.04,4.264c-1.422,6.886-0.908,7.744,5.532,9.356
		c0.107,0.026,0.235-0.027,0.731-0.096C325.398,664.822,326.213,661.461,327.089,657.85z M385.954,666.27
		c0-2.852,0.036-5.814-0.013-8.775c-0.03-1.819-0.839-2.487-2.766-1.986c-5.555,1.448-6.112,2.368-4.457,7.763
		c0.495,1.61,0.815,3.274,1.248,5.054C382.031,667.615,383.868,666.985,385.954,666.27z M357.36,656.546
		c-0.13-2.644-0.25-5.081-0.372-7.558c-3.153,0-6.053,0-8.97,0c-0.215,2.623-0.412,5.021-0.619,7.558
		C350.701,656.546,354.003,656.546,357.36,656.546z M341.987,656.278c0.348-2.886,0.646-5.359,0.962-7.98
		c-3.231-0.359-5.935-0.659-9.201-1.022c0.274,2.712-0.289,5.706,0.912,6.853C336.186,655.585,339.142,655.543,341.987,656.278z
		 M361.649,648.293c-0.322,8.158,0.67,8.78,8.959,5.834C371.104,647.644,370.731,647.393,361.649,648.293z M376.139,652.436
		c0.309,0.145,0.618,0.288,0.927,0.432c0.904-2.919,6.674,0.347,5.45-5.06c-0.903-3.991-1.115-3.943-8.313-2.109
		C374.852,647.955,375.495,650.195,376.139,652.436z M328.384,652.647c0.263-2.54,0.64-4.804,0.567-7.052
		c-0.01-0.319-2.742-1.198-3.295-0.731c-1.686,1.424-2.921,3.379-4.495,5.329C324.013,651.162,325.864,651.791,328.384,652.647z"/>
	<path fill-rule="evenodd" clip-rule="evenodd" fill="#FFFFFF" d="M276.169,560.461c10.952-3.888,22.362-6.483,34.107-7.444
		c10.286-0.841,20.586-1.524,30.888-2.154c6.063-0.371,12.146-0.812,18.208-0.675c10.726,0.242,21.473,0.546,32.154,1.48
		c11.268,0.985,22.468,2.738,33.639,4.148c3.969,39.428-16.932,75.793-56.707,84.105c-24.259,5.07-47.374,1.216-66.392-15.83
		C283.465,607.418,276.546,585.314,276.169,560.461z M387.926,565.24c-18.021-0.187-27.306,10.913-27.679,25.611
		c-0.363,14.337,12.238,26.331,26.569,26.147c14.765-0.189,23.962-9.923,24.354-25.812
		C411.532,576.549,400.654,564.382,387.926,565.24z M317.794,617.08c13.256,1.048,24.701-11.304,23.997-25.799
		c-0.683-14.061-8.32-25.917-23.792-25.824c-14.461,0.087-25.773,7.628-26.22,25.288
		C291.409,605.364,301.791,617.671,317.794,617.08z M361.479,620.715c0.001-5.347-3.031-8.804-8.085-8.612
		c-6.827,0.259-11.383,3.077-11.361,9.314c0.02,5.878,4.198,10.759,9.251,10.778C357.426,632.22,361.479,627.656,361.479,620.715z"
		/>
	<path fill-rule="evenodd" clip-rule="evenodd" fill="#FFFFFF" d="M285.832,525.268c6.618-15.553,18.516-25.044,33.346-31.243
		c10.762-4.498,22.167-6.638,33.755-6.427c16.534,0.302,32.186,4.348,45.619,14.51c6.503,4.919,12.232,10.733,15.257,18.643
		c0.406,1.059,1.128,1.998,1.834,3.218C372.261,517.87,329.248,518.496,285.832,525.268z"/>
	<path fill-rule="evenodd" clip-rule="evenodd" fill="#FFFFFF" d="M464.246,547.284c-3.432-1.189-6.099-2.517-8.907-2.986
		c-3.741-0.625-4.219-3.579-5.214-6.171c-4.97-12.953-11.701-24.988-20.725-35.429c-14.742-17.061-32.783-28.885-55.39-33.389
		c-10.787-2.149-21.585-2.566-32.329-1.816c-18.008,1.257-34.659,7.083-49.505,17.66c-13.633,9.712-24.096,22.223-32.102,36.762
		c-3.725,6.763-6.792,13.916-9.765,21.055c-1.736,4.169-6.134,3.334-8.831,5.567c-0.645,0.535-1.761,0.501-3.262,0.882
		c0.588-2.024,1.04-3.756,1.594-5.455c5.363-16.442,12.788-31.912,23.42-45.559c15.078-19.353,34.581-32.356,58.542-38.189
		c13.398-3.262,27.142-3.844,40.79-2.836c20.336,1.502,39.161,8.156,55.528,20.394c8.394,6.277,15.659,13.929,22.208,22.349
		c10.424,13.402,17.165,28.566,23.346,44.111C463.901,544.88,463.927,545.617,464.246,547.284z"/>
	<path fill-rule="evenodd" clip-rule="evenodd" fill="#FFFFFF" d="M231.787,558.934c4.294-1.72,8.464-3.917,12.906-5.073
		c14.738-3.839,29.489-7.725,44.405-10.756c8.99-1.826,18.278-2.304,27.462-3.014c9.485-0.733,19.006-0.994,28.509-1.504
		c3.076-0.166,6.158-0.779,9.214-0.653c14.618,0.604,29.277,0.871,43.831,2.233c23.318,2.181,46.328,6.261,68.482,14.239
		c1.604,0.577,3.19,1.205,4.906,2.557c-4.248,1.077-8.442,2.545-12.756,3.143c-7.488,1.037-15.061,1.462-22.578,2.309
		c-1.97,0.222-2.828-0.116-3.514-2.164c-1.693-5.061-3.613-10.158-9.942-11.167c-4.062-0.647-8.114-1.469-12.204-1.795
		c-7.92-0.632-15.86-1.03-23.798-1.402c-3.733-0.176-7.481,0.009-11.219-0.106c-5.475-0.169-10.946-0.688-16.417-0.652
		c-9.791,0.065-19.583,0.328-29.368,0.706c-8.428,0.326-16.882,0.59-25.258,1.498c-9.188,0.997-18.487,1.726-26.945,6.26
		c-3.894,2.087-7.01,4.751-8.824,8.699c-0.845,1.839-1.87,2.503-3.762,2.23c-9.67-1.392-19.343-2.765-29.017-4.129
		c-1.264-0.178-2.541-0.266-3.812-0.395C231.989,559.644,231.888,559.289,231.787,558.934z"/>
	<path fill-rule="evenodd" clip-rule="evenodd" fill="#FFFFFF" d="M235.714,566.564c3.38,0.583,6.559,1.132,9.846,1.7
		c0,4.788-0.103,9.218,0.018,13.642c0.52,19.115,5.634,36.843,15.985,53.022c8.351,13.053,18.916,23.937,31.844,32.411
		c4.799,3.146,10.53,4.95,15.09,8.363c6.104,4.568,11.482,10.104,17.76,15.755c-9.155,0.945-40.706-14.838-50.528-23.525
		C243.262,639.211,234.021,601.248,235.714,566.564z"/>
	<path fill-rule="evenodd" clip-rule="evenodd" fill="#FFFFFF" d="M457.527,565.554c2.859-0.513,6.069-1.089,9.743-1.748
		c0.58,28.33-3.545,55.26-19.213,79.558c-15.706,24.356-38.665,38.763-65.881,48.491c0.531-1.406,0.8-2.568,1.383-3.543
		c0.722-1.206,1.991-2.133,2.528-3.392c4.022-9.418,13.718-11.367,21.22-16.103c18.823-11.883,32.991-27.56,41.406-48.359
		c4.692-11.598,7.373-23.53,7.825-36.013C456.761,578.309,457.175,572.179,457.527,565.554z"/>
	<path fill-rule="evenodd" clip-rule="evenodd" fill="#FFFFFF" d="M473.734,444.078c3.116,0.311,5.89,0.393,8.583,0.899
		c4.682,0.88,6.888,4.19,7.271,8.652c0.406,4.737-2.764,12.521-9.121,14.013c-4.565,1.071-7.685-0.843-10.879-3.461
		c-0.6-0.492-2.193-0.729-2.626-0.326c-7.456,6.928-14.802,13.974-22.271,21.089c-3.18-2.827-6.846-5.918-10.222-9.3
		c-0.415-0.416,0.372-2.72,1.197-3.576c5.659-5.873,11.477-11.594,17.247-17.358c0.677-0.675,1.382-1.321,1.96-1.871
		c-0.701-2.77-1.414-5.324-1.991-7.909c-1.621-7.274,2.543-13.853,9.619-15.884c6.07-1.743,13.912,4.214,11.825,11.385
		C473.945,441.742,473.88,443.145,473.734,444.078z"/>
	<path fill-rule="evenodd" clip-rule="evenodd" fill="#FFFFFF" d="M268.676,475.134c-3.166,3.059-6.35,6.135-9.536,9.209
		c-0.596,0.574-1.201,1.139-1.912,1.812c-7.374-7.416-14.675-14.759-21.813-21.938c-10.047,4.802-13.243,4.65-18.353-0.546
		c-3.669-3.731-5.083-9.434-2.97-13.283c2.325-4.235,6.34-5.513,13.53-4.8c0-2.643-0.506-5.373,0.091-7.835
		c2.118-8.725,10.68-11.597,18.504-5.337c5.44,4.353,6.055,10.292,1.949,16.015c-1.922,2.679-1.985,4.337,0.59,6.771
		c5.365,5.071,10.271,10.626,15.417,15.932C265.479,472.479,266.979,473.637,268.676,475.134z"/>
	<path fill-rule="evenodd" clip-rule="evenodd" fill="#FFFFFF" d="M234.888,678.534c6.037-5.402,11.762-10.524,17.072-15.278
		c3.048,3.073,6.446,6.499,10.252,10.336c-0.292,0.382-1.059,1.631-2.058,2.653c-3.854,3.946-7.744,7.857-11.701,11.699
		c-1.42,1.378-1.634,2.266-0.394,4.173c4.494,6.908,1.4,19.483-8.888,21.038c-3.483,0.526-7.841-1.684-8.675-5.061
		c-0.926-3.749-1.395-7.611-1.967-10.873c-3.057-0.174-6.584,0.357-9.467-0.766c-2.356-0.918-4.398-3.543-5.771-5.886
		c-2.417-4.124-0.813-10.411,3.78-13.529C223.419,672.733,225.726,672.304,234.888,678.534z"/>
	<path fill-rule="evenodd" clip-rule="evenodd" fill="#FFFFFF" d="M441.445,672.522c3.162-3.614,6.192-7.079,9.737-11.133
		c4.517,4.41,9.292,8.845,13.777,13.559c1.948,2.047,3.602,2.258,5.896,0.88c3.861-2.318,7.778-3.957,12.252-1.196
		c5.404,3.336,8.145,12.451,5.16,17.778c-1.813,3.237-5.448,4.737-9.16,4.066c-1.604-0.291-3.305-0.049-5.306-0.049
		c0,2.609,0.148,5.13-0.031,7.627c-0.354,4.897-3.495,8.293-8.457,9.422c-3.646,0.828-8.744-1.855-10.973-5.777
		c-3.269-5.75-2.775-11.13,1.022-16.541c0.773-1.103,0.922-3.556,0.21-4.608c-1.844-2.727-4.22-5.132-6.591-7.453
		C446.637,676.799,444.036,674.762,441.445,672.522z"/>
	<path fill-rule="evenodd" clip-rule="evenodd" fill="#FFFFFF" d="M422.92,538.123c-48.146-6.771-95.708-6.545-143.201,0.943
		c0.248-4.838,1.746-7.303,5.988-8.318c4.435-1.062,8.999-1.654,13.536-2.194c8.915-1.061,17.835-2.13,26.783-2.841
		c6.883-0.547,13.808-0.66,20.718-0.766c8.034-0.123,16.09-0.382,24.101,0.057c11.186,0.613,22.338,1.818,33.504,2.768
		c2.982,0.254,6.004,0.283,8.938,0.802C418.191,529.443,421.538,532.206,422.92,538.123z"/>
	<path fill-rule="evenodd" clip-rule="evenodd" fill="#FFFFFF" d="M385.248,672.666c-1.363,7.543-4.894,13.477-11.447,17.053
		c-14.642,7.988-29.305,7.024-43.295-1.492c-5.51-3.354-9.688-8.416-10.805-15.677C341.622,679.803,363.261,679.126,385.248,672.666
		z"/>
	<path fill-rule="evenodd" clip-rule="evenodd" fill="#FFFFFF" d="M359.289,673.063c-4.891,0-9.491,0-14.186,0
		c0.448-3.781,0.881-7.442,1.342-11.343c3.378,0,6.464-0.102,9.535,0.064c0.876,0.048,2.368,0.776,2.454,1.359
		C358.907,666.357,359.031,669.622,359.289,673.063z"/>
	<path fill-rule="evenodd" clip-rule="evenodd" fill="#FFFFFF" d="M341.544,661.322c-0.339,3.498-0.656,6.77-1.05,10.837
		c-3.915-0.813-7.579-1.574-11.186-2.323c0.881-3.896,1.623-7.175,2.452-10.837C334.92,659.749,337.934,660.465,341.544,661.322z"/>
	<path fill-rule="evenodd" clip-rule="evenodd" fill="#FFFFFF" d="M372.667,659.277c0.758,3.938,1.39,7.22,2.077,10.792
		c-3.568,0.753-6.693,1.413-10.563,2.229c-0.268-4.005-0.49-7.34-0.731-10.944C366.617,660.641,369.514,659.988,372.667,659.277z"/>
	<path fill-rule="evenodd" clip-rule="evenodd" fill="#FFFFFF" d="M327.089,657.85c-0.876,3.611-1.691,6.973-2.473,10.197
		c-0.496,0.068-0.624,0.122-0.731,0.096c-6.439-1.612-6.954-2.471-5.532-9.356c0.281-1.36,0.657-2.704,1.04-4.264
		C321.94,655.624,324.455,656.711,327.089,657.85z"/>
	<path fill-rule="evenodd" clip-rule="evenodd" fill="#FFFFFF" d="M385.954,666.27c-2.086,0.716-3.923,1.346-5.987,2.055
		c-0.433-1.779-0.753-3.443-1.248-5.054c-1.655-5.395-1.098-6.314,4.457-7.763c1.927-0.501,2.735,0.167,2.766,1.986
		C385.99,660.455,385.954,663.418,385.954,666.27z"/>
	<path fill-rule="evenodd" clip-rule="evenodd" fill="#FFFFFF" d="M357.36,656.546c-3.356,0-6.659,0-9.96,0
		c0.207-2.536,0.404-4.935,0.619-7.558c2.917,0,5.817,0,8.97,0C357.11,651.465,357.23,653.902,357.36,656.546z"/>
	<path fill-rule="evenodd" clip-rule="evenodd" fill="#FFFFFF" d="M341.987,656.278c-2.846-0.735-5.802-0.693-7.327-2.15
		c-1.201-1.146-0.637-4.141-0.912-6.853c3.266,0.363,5.97,0.663,9.201,1.022C342.634,650.919,342.335,653.393,341.987,656.278z"/>
	<path fill-rule="evenodd" clip-rule="evenodd" fill="#FFFFFF" d="M361.649,648.293c9.082-0.9,9.455-0.649,8.959,5.834
		C362.319,657.073,361.327,656.451,361.649,648.293z"/>
	<path fill-rule="evenodd" clip-rule="evenodd" fill="#FFFFFF" d="M376.139,652.436c-0.644-2.24-1.287-4.48-1.936-6.737
		c7.197-1.834,7.409-1.882,8.313,2.109c1.224,5.406-4.546,2.141-5.45,5.06C376.757,652.724,376.447,652.58,376.139,652.436z"/>
	<path fill-rule="evenodd" clip-rule="evenodd" fill="#FFFFFF" d="M328.384,652.647c-2.52-0.856-4.371-1.485-7.223-2.454
		c1.573-1.95,2.809-3.905,4.495-5.329c0.554-0.467,3.285,0.412,3.295,0.731C329.024,647.844,328.646,650.107,328.384,652.647z"/>
	<path fill-rule="evenodd" clip-rule="evenodd" d="M387.926,565.24c12.729-0.858,23.606,11.309,23.245,25.947
		c-0.393,15.889-9.59,25.622-24.354,25.812c-14.331,0.184-26.933-11.811-26.569-26.147
		C360.62,576.153,369.905,565.054,387.926,565.24z"/>
	<path fill-rule="evenodd" clip-rule="evenodd" d="M317.794,617.08c-16.004,0.591-26.385-11.716-26.015-26.335
		c0.447-17.66,11.759-25.201,26.22-25.288c15.472-0.093,23.109,11.764,23.792,25.824C342.495,605.776,331.05,618.128,317.794,617.08
		z"/>
	<path fill-rule="evenodd" clip-rule="evenodd" d="M361.479,620.715c-0.001,6.941-4.053,11.505-10.195,11.48
		c-5.053-0.02-9.231-4.9-9.251-10.778c-0.021-6.237,4.534-9.056,11.361-9.314C358.448,611.911,361.48,615.368,361.479,620.715z"/>
</g>
</svg>
